<svg xmlns="http://www.w3.org/2000/svg" viewBox="0 0 256 256" xml:space="preserve"><rect width="100%" height="100%" fill="transparent"/><rect style="stroke:none;stroke-width:1;stroke-dasharray:none;stroke-linecap:butt;stroke-dashoffset:0;stroke-linejoin:miter;stroke-miterlimit:4;fill:#010101;fill-rule:nonzero;opacity:1" vector-effect="non-scaling-stroke" x="-128" y="-128" rx="0" ry="0" width="256" height="256" transform="translate(128 128)"/><g><text xml:space="preserve" font-family="arial" font-size="142" font-weight="900" style="stroke:none;stroke-width:1;stroke-dasharray:none;stroke-linecap:butt;stroke-dashoffset:0;stroke-linejoin:miter;stroke-miterlimit:4;fill:#fff;fill-opacity:.98;fill-rule:nonzero;opacity:1;white-space:pre" transform="translate(71.31 78.77)"><tspan x="-47.36" y="44.61">A</tspan></text></g><g><text xml:space="preserve" font-family="arial" font-size="111" font-weight="900" style="stroke:none;stroke-width:1;stroke-dasharray:none;stroke-linecap:butt;stroke-dashoffset:0;stroke-linejoin:miter;stroke-miterlimit:4;fill:#fff;fill-rule:nonzero;opacity:1;white-space:pre" transform="translate(179.9 182.78)"><tspan x="-55.5" y="34.87">文</tspan></text></g><path style="stroke:#000;stroke-width:0;stroke-dasharray:none;stroke-linecap:butt;stroke-dashoffset:0;stroke-linejoin:miter;stroke-miterlimit:4;fill:#656565;fill-rule:nonzero;opacity:1" vector-effect="non-scaling-stroke" transform="matrix(.89 0 0 .89 129.29 28.17)" d="M76.854 20.966c4.967 0 8.966 3.999 8.966 8.906v47.494c0 4.909-3.999 8.966-8.966 8.966H29.417c-4.967 0-8.966-4.057-8.966-8.966.182-6.604 16.721-9.024 28.474-14.174L15.907 30.176c-2.302-2.363-2.302-6.12 0-8.422l6.361-6.361a5.923 5.923 0 0 1 8.36 0l32.593 32.654c4.667-11.45 6.967-26.233 13.633-27.081z"/><path style="stroke:#000;stroke-width:0;stroke-dasharray:none;stroke-linecap:butt;stroke-dashoffset:0;stroke-linejoin:miter;stroke-miterlimit:4;fill:#656565;fill-rule:nonzero;opacity:1" vector-effect="non-scaling-stroke" transform="matrix(-.89 0 0 -.89 116.19 226.18)" d="M76.854 20.966c4.967 0 8.966 3.999 8.966 8.906v47.494c0 4.909-3.999 8.966-8.966 8.966H29.417c-4.967 0-8.966-4.057-8.966-8.966.182-6.604 16.721-9.024 28.474-14.174L15.907 30.176c-2.302-2.363-2.302-6.12 0-8.422l6.361-6.361a5.923 5.923 0 0 1 8.36 0l32.593 32.654c4.667-11.45 6.967-26.233 13.633-27.081z"/></svg>