<svg xmlns="http://www.w3.org/2000/svg" viewBox="0 0 512 512" xml:space="preserve"><rect width="100%" height="100%" fill="transparent"/><circle style="stroke:#000;stroke-width:0;stroke-dasharray:none;stroke-linecap:butt;stroke-dashoffset:0;stroke-linejoin:miter;stroke-miterlimit:4;fill:#c42020;fill-rule:nonzero;opacity:1" vector-effect="non-scaling-stroke" r="35" transform="matrix(4.79 0 0 4.79 256.03 256.03)"/><circle style="stroke:#000;stroke-width:0;stroke-dasharray:none;stroke-linecap:butt;stroke-dashoffset:0;stroke-linejoin:miter;stroke-miterlimit:4;fill:#da0e16;fill-rule:nonzero;opacity:1" vector-effect="non-scaling-stroke" r="35" transform="matrix(7.33 0 0 7.33 255.49 255.49)"/><path style="stroke:#000;stroke-width:0;stroke-dasharray:none;stroke-linecap:butt;stroke-dashoffset:0;stroke-linejoin:miter;stroke-miterlimit:4;fill:#ffc500;fill-rule:nonzero;opacity:1" vector-effect="non-scaling-stroke" d="m0-35.47 11.56 23.3L37.29-8.4 18.68 9.8l4.38 25.67L0 23.42l-23.06 12.05 4.32-25.67-18.55-18.2 25.73-3.77z" transform="matrix(2.75 0 0 2.75 198.07 185)"/><path style="stroke:#000;stroke-width:0;stroke-dasharray:none;stroke-linecap:butt;stroke-dashoffset:0;stroke-linejoin:miter;stroke-miterlimit:4;fill:#ffc500;fill-rule:nonzero;opacity:1" vector-effect="non-scaling-stroke" d="m0-35.47 11.56 23.3L37.29-8.4 18.68 9.8l4.38 25.67L0 23.42l-23.06 12.05 4.32-25.67-18.55-18.2 25.73-3.77z" transform="matrix(.93 0 0 .93 209.9 351.37)"/><path style="stroke:#000;stroke-width:0;stroke-dasharray:none;stroke-linecap:butt;stroke-dashoffset:0;stroke-linejoin:miter;stroke-miterlimit:4;fill:#ffc500;fill-rule:nonzero;opacity:1" vector-effect="non-scaling-stroke" d="m0-35.47 11.56 23.3L37.29-8.4 18.68 9.8l4.38 25.67L0 23.42l-23.06 12.05 4.32-25.67-18.55-18.2 25.73-3.77z" transform="matrix(.93 0 0 .93 312.83 310.55)"/><path style="stroke:#000;stroke-width:0;stroke-dasharray:none;stroke-linecap:butt;stroke-dashoffset:0;stroke-linejoin:miter;stroke-miterlimit:4;fill:#ffc500;fill-rule:nonzero;opacity:1" vector-effect="non-scaling-stroke" d="m0-35.47 11.56 23.3L37.29-8.4 18.68 9.8l4.38 25.67L0 23.42l-23.06 12.05 4.32-25.67-18.55-18.2 25.73-3.77z" transform="matrix(.93 0 0 .93 363.49 223.26)"/><path style="stroke:#000;stroke-width:0;stroke-dasharray:none;stroke-linecap:butt;stroke-dashoffset:0;stroke-linejoin:miter;stroke-miterlimit:4;fill:#ffc500;fill-rule:nonzero;opacity:1" vector-effect="non-scaling-stroke" d="m0-35.47 11.56 23.3L37.29-8.4 18.68 9.8l4.38 25.67L0 23.42l-23.06 12.05 4.32-25.67-18.55-18.2 25.73-3.77z" transform="matrix(.93 0 0 .93 358.97 111.29)"/></svg>